<svg version="1.1" id="Layer_1" xmlns="http://www.w3.org/2000/svg" xmlns:xlink="http://www.w3.org/1999/xlink" x="0px" y="0px"
     viewBox="0 0 1689.028 1689.028" enable-background="new 0 0 1689.028 1689.028" xml:space="preserve">
<g>
	<radialGradient id="SVGID_1_" cx="1125.1383" cy="253.042" r="365.4724" gradientUnits="userSpaceOnUse">
		<stop  offset="0" style="stop-color:#FFFFFF"/>
        <stop  offset="0.0546" style="stop-color:#FDE8E8"/>
        <stop  offset="0.1819" style="stop-color:#F8B6B7"/>
        <stop  offset="0.3125" style="stop-color:#F48C8D"/>
        <stop  offset="0.4442" style="stop-color:#F16A6B"/>
        <stop  offset="0.5775" style="stop-color:#EE4F50"/>
        <stop  offset="0.713" style="stop-color:#EC3C3D"/>
        <stop  offset="0.852" style="stop-color:#EB3132"/>
        <stop  offset="1" style="stop-color:#EB2D2E"/>
	</radialGradient>
    <path fill="url(#SVGID_1_)" d="M1122.42,44.514l-33.649,96.859c-150.081-51.597-305.95-53.729-449.3-12.431
		c45.022,18.682,89.985,43.664,128.182,71.318c-30.039,34.857-56.345,74.313-75.518,112.415
		c105.479-30.445,222.047-29.385,333.913,9.246L992.4,418.78c74.9-49.968,163.677-77.514,253.322-84.171
		C1230.656,240.482,1190.723,139.601,1122.42,44.514z"/>
    <radialGradient id="SVGID_2_" cx="631.9665" cy="228.3413" r="365.2321" gradientUnits="userSpaceOnUse">
		<stop  offset="0" style="stop-color:#FFFFFF"/>
        <stop  offset="0.1102" style="stop-color:#CBE2F0"/>
        <stop  offset="0.239" style="stop-color:#96C5E1"/>
        <stop  offset="0.3696" style="stop-color:#68ABD3"/>
        <stop  offset="0.4992" style="stop-color:#4396C8"/>
        <stop  offset="0.6276" style="stop-color:#2586C0"/>
        <stop  offset="0.7546" style="stop-color:#117ABA"/>
        <stop  offset="0.8795" style="stop-color:#0473B6"/>
        <stop  offset="1" style="stop-color:#0071B5"/>
	</radialGradient>
    <path fill="url(#SVGID_2_)" d="M475.338,82.319l44.696,92.283C377.337,244.28,265.649,353.047,193.541,483.515
		c45.029-18.618,94.504-32.756,141.068-40.209c3.415,45.99,12.732,92.472,26.09,132.889
		c53.057-96.113,136.232-177.79,242.651-229.574l44.696,92.283c17.631-88.295,60.925-170.548,119.608-238.644
		C690.435,144.356,590.878,101.256,475.338,82.319z"/>
    <radialGradient id="SVGID_3_" cx="248.9473" cy="571.7378" r="355.3561" gradientUnits="userSpaceOnUse">
		<stop  offset="0" style="stop-color:#FFFFFF"/>
        <stop  offset="0.1268" style="stop-color:#D2FFD4"/>
        <stop  offset="0.2747" style="stop-color:#A5FFA9"/>
        <stop  offset="0.4237" style="stop-color:#7FFF85"/>
        <stop  offset="0.5715" style="stop-color:#62FF6A"/>
        <stop  offset="0.7176" style="stop-color:#4EFF56"/>
        <stop  offset="0.8614" style="stop-color:#41FF4A"/>
        <stop  offset="1" style="stop-color:#3DFF46"/>
	</radialGradient>
    <path fill="url(#SVGID_3_)" d="M200.259,921.374c34.856,30.038,74.313,56.345,112.415,75.518
		c-30.445-105.479-29.385-222.047,9.246-333.913l96.859,33.649c-49.957-74.88-77.512-163.653-84.171-253.322
		c-94.34,15.101-195.208,55.138-290.095,123.302l96.859,33.649c-51.596,150.077-53.729,305.948-12.431,449.3
		C147.624,1004.534,172.606,959.572,200.259,921.374z"/>
    <radialGradient id="SVGID_4_" cx="230.7868" cy="1071.9741" r="355.6321" gradientUnits="userSpaceOnUse">
		<stop  offset="0" style="stop-color:#FFFFFF"/>
        <stop  offset="0.1403" style="stop-color:#FDF4CC"/>
        <stop  offset="0.286" style="stop-color:#FCEA9F"/>
        <stop  offset="0.4327" style="stop-color:#FAE279"/>
        <stop  offset="0.5781" style="stop-color:#F9DC5C"/>
        <stop  offset="0.722" style="stop-color:#F9D848"/>
        <stop  offset="0.8635" style="stop-color:#F8D53B"/>
        <stop  offset="1" style="stop-color:#F8D437"/>
	</radialGradient>
    <path fill="url(#SVGID_4_)" d="M443.306,1354.42c45.996-3.416,92.472-12.735,132.889-26.09
		c-96.113-53.057-177.789-136.233-229.574-242.651l92.283-44.696c-88.295-17.631-170.548-60.925-238.644-119.608
		c-55.903,77.219-99.003,176.775-117.94,292.316l92.283-44.696c69.632,142.599,178.346,254.331,308.913,326.493
		C464.936,1450.553,450.774,1401.079,443.306,1354.42z"/>
    <radialGradient id="SVGID_5_" cx="559.3249" cy="1431.8801" r="370.7833" gradientUnits="userSpaceOnUse">
		<stop  offset="0" style="stop-color:#FFFFFF"/>
        <stop  offset="0.0546" style="stop-color:#FDE8E8"/>
        <stop  offset="0.1819" style="stop-color:#F8B6B7"/>
        <stop  offset="0.3125" style="stop-color:#F48C8D"/>
        <stop  offset="0.4442" style="stop-color:#F16A6B"/>
        <stop  offset="0.5775" style="stop-color:#EE4F50"/>
        <stop  offset="0.713" style="stop-color:#EC3C3D"/>
        <stop  offset="0.852" style="stop-color:#EB3132"/>
        <stop  offset="1" style="stop-color:#EB2D2E"/>
	</radialGradient>
    <path fill="url(#SVGID_5_)" d="M921.374,1488.769c29.979-34.788,56.306-74.235,75.518-112.415
		c-105.479,30.446-222.047,29.385-333.913-9.246l33.649-96.859c-74.9,49.968-163.677,77.514-253.322,84.171
		c15.066,94.123,54.998,195.008,123.302,290.094l33.649-96.859c150.173,51.632,306.056,53.698,449.3,12.431
		C1004.524,1541.398,959.572,1516.422,921.374,1488.769z"/>
    <radialGradient id="SVGID_6_" cx="1074.4197" cy="1454.9933" r="350.0042" gradientUnits="userSpaceOnUse">
		<stop  offset="0" style="stop-color:#FFFFFF"/>
        <stop  offset="0.1102" style="stop-color:#CBE2F0"/>
        <stop  offset="0.239" style="stop-color:#96C5E1"/>
        <stop  offset="0.3696" style="stop-color:#68ABD3"/>
        <stop  offset="0.4992" style="stop-color:#4396C8"/>
        <stop  offset="0.6276" style="stop-color:#2586C0"/>
        <stop  offset="0.7546" style="stop-color:#117ABA"/>
        <stop  offset="0.8795" style="stop-color:#0473B6"/>
        <stop  offset="1" style="stop-color:#0071B5"/>
	</radialGradient>
    <path fill="url(#SVGID_6_)" d="M1354.419,1245.722c-3.365-45.369-12.562-91.958-26.09-132.889
		c-53.057,96.113-136.233,177.789-242.651,229.574l-44.696-92.283c-17.541,87.888-60.642,170.22-119.608,238.644
		c77.237,55.916,176.782,99,292.316,117.94l-44.696-92.283c142.604-69.635,254.334-178.351,326.493-308.913
		C1450.553,1224.092,1401.079,1238.254,1354.419,1245.722z"/>
    <radialGradient id="SVGID_7_" cx="1429.3728" cy="1126.4553" r="362.6672" gradientUnits="userSpaceOnUse">
		<stop  offset="0" style="stop-color:#FFFFFF"/>
        <stop  offset="0.1268" style="stop-color:#D2FFD4"/>
        <stop  offset="0.2747" style="stop-color:#A5FFA9"/>
        <stop  offset="0.4237" style="stop-color:#7FFF85"/>
        <stop  offset="0.5715" style="stop-color:#62FF6A"/>
        <stop  offset="0.7176" style="stop-color:#4EFF56"/>
        <stop  offset="0.8614" style="stop-color:#41FF4A"/>
        <stop  offset="1" style="stop-color:#3DFF46"/>
	</radialGradient>
    <path fill="url(#SVGID_7_)" d="M1547.655,1088.771c51.618-150.143,53.711-306.012,12.431-449.3
		c-18.686,45.023-43.662,89.987-71.318,128.182c-35.109-30.252-74.563-56.471-112.415-75.518
		c30.445,105.479,29.385,222.047-9.246,333.913l-96.859-33.649c49.855,74.727,77.506,163.469,84.171,253.322
		c94.541-15.133,195.41-55.276,290.095-123.302L1547.655,1088.771z"/>
    <radialGradient id="SVGID_8_" cx="1465.6936" cy="644.3794" r="386.6032" gradientUnits="userSpaceOnUse">
		<stop  offset="0" style="stop-color:#FFFFFF"/>
        <stop  offset="0.1403" style="stop-color:#FDF4CC"/>
        <stop  offset="0.286" style="stop-color:#FCEA9F"/>
        <stop  offset="0.4327" style="stop-color:#FAE279"/>
        <stop  offset="0.5781" style="stop-color:#F9DC5C"/>
        <stop  offset="0.722" style="stop-color:#F9D848"/>
        <stop  offset="0.8635" style="stop-color:#F8D53B"/>
        <stop  offset="1" style="stop-color:#F8D437"/>
	</radialGradient>
    <path fill="url(#SVGID_8_)" d="M1514.426,520.034c-69.662-142.669-178.423-254.373-308.913-326.493
		c18.618,45.029,32.756,94.504,40.209,141.068c-45.999,3.416-92.483,12.736-132.889,26.091
		c96.113,53.057,177.79,136.232,229.574,242.651l-92.283,44.696c88.223,17.612,170.481,60.874,238.644,119.608
		c56.15-77.548,99.087-177.261,117.94-292.316L1514.426,520.034z"/>
</g>
</svg>
